<svg xmlns="http://www.w3.org/2000/svg" display="none">
	<symbol id="github" viewBox="0 0 291.32 291.32">
		<g>
		  <path xmlns="http://www.w3.org/2000/svg" d="M145.66,0C65.219,0,0,65.219,0,145.66c0,80.45,65.219,145.66,145.66,145.66   s145.66-65.21,145.66-145.66C291.319,65.219,226.1,0,145.66,0z M186.462,256.625c-0.838-11.398-1.775-25.518-1.83-31.235   c-0.364-4.388-0.838-15.549-11.434-22.677c42.068-3.523,62.087-26.774,63.526-57.499c1.202-17.497-5.754-32.883-18.107-45.3   c0.628-13.282-0.401-29.023-1.256-35.941c-9.486-2.731-31.608,8.949-37.79,13.947c-13.037-5.062-44.945-6.837-64.336,0   c-13.747-9.668-29.396-15.64-37.926-13.974c-7.875,17.452-2.813,33.948-1.275,35.914c-10.142,9.268-24.289,20.675-20.447,44.572   c6.163,35.04,30.816,53.94,70.508,58.564c-8.466,1.73-9.896,8.048-10.606,10.788c-26.656,10.997-34.275-6.791-37.644-11.425   c-11.188-13.847-21.23-9.832-21.849-9.614c-0.601,0.218-1.056,1.092-0.992,1.511c0.564,2.986,6.655,6.018,6.955,6.263   c8.257,6.154,11.316,17.27,13.2,20.438c11.844,19.473,39.374,11.398,39.638,11.562c0.018,1.702-0.191,16.032-0.355,27.184   C64.245,245.992,27.311,200.2,27.311,145.66c0-65.365,52.984-118.348,118.348-118.348S264.008,80.295,264.008,145.66   C264.008,196.668,231.69,239.992,186.462,256.625z"/>
		</g>
	</symbol>
	<symbol id="plus" viewBox="0 0 45.402 45.402">
		<g>
		  <path xmlns="http://www.w3.org/2000/svg" d="M41.267,18.557H26.832V4.134C26.832,1.851,24.99,0,22.707,0c-2.283,0-4.124,1.851-4.124,4.135v14.432H4.141   c-2.283,0-4.139,1.851-4.138,4.135c-0.001,1.141,0.46,2.187,1.207,2.934c0.748,0.749,1.78,1.222,2.92,1.222h14.453V41.27   c0,1.142,0.453,2.176,1.201,2.922c0.748,0.748,1.777,1.211,2.919,1.211c2.282,0,4.129-1.851,4.129-4.133V26.857h14.435   c2.283,0,4.134-1.867,4.133-4.15C45.399,20.425,43.548,18.557,41.267,18.557z"/>
		</g>
	</symbol>
	<symbol id="minus" viewBox="0 0 42 42">
		<g>
		  <path xmlns="http://www.w3.org/2000/svg" d="M37.059,16H26H16H4.941C2.224,16,0,18.282,0,21s2.224,5,4.941,5H16h10h11.059C39.776,26,42,23.718,42,21  S39.776,16,37.059,16z"/>
		</g>
	</symbol>
	<symbol id="multi" viewBox="0 0 11.328 11.328">
		<g>
		  <path xmlns="http://www.w3.org/2000/svg" d="M11.145,9.085L7.723,5.664l3.422-3.421c0.243-0.244,0.243-0.64,0-0.883L9.967,0.183   c-0.244-0.244-0.64-0.244-0.883,0L5.662,3.604l-3.42-3.421c-0.244-0.244-0.639-0.244-0.883,0L0.183,1.36   c-0.243,0.244-0.243,0.639,0,0.883l3.421,3.421L0.183,9.085c-0.243,0.244-0.243,0.639,0,0.883l1.177,1.178   c0.244,0.243,0.639,0.243,0.883,0l3.42-3.422l3.422,3.422c0.243,0.243,0.639,0.243,0.883,0l1.178-1.178   C11.389,9.724,11.389,9.329,11.145,9.085z"/>
		</g>
	</symbol>
	<symbol id="division" viewBox="0 0 16 16">
		<g>
		  <path xmlns="http://www.w3.org/2000/svg" d="M16,9c0,0.553-0.447,1-1,1H1c-0.553,0-1-0.447-1-1V7c0-0.552,0.447-1,1-1h14c0.553,0,1,0.448,1,1V9z   "/>
			<path xmlns="http://www.w3.org/2000/svg" d="M7,4C6.447,4,6,3.553,6,3V1c0-0.553,0.447-1,1-1h2c0.553,0,1,0.447,1,1v2c0,0.553-0.447,1-1,1H7z"/>
			<path xmlns="http://www.w3.org/2000/svg" d="M7,16c-0.553,0-1-0.447-1-1v-2c0-0.553,0.447-1,1-1h2c0.553,0,1,0.447,1,1v2c0,0.553-0.447,1-1,1H7z   "/>
		</g>
	</symbol>
</svg>